<?xml version="1.0" encoding="iso-8859-1"?>
<!-- Generator: Adobe Illustrator 18.0.0, SVG Export Plug-In . SVG Version: 6.00 Build 0)  -->
<!DOCTYPE svg PUBLIC "-//W3C//DTD SVG 1.1//EN" "http://www.w3.org/Graphics/SVG/1.1/DTD/svg11.dtd">
<svg version="1.1" id="Capa_1" xmlns="http://www.w3.org/2000/svg" xmlns:xlink="http://www.w3.org/1999/xlink" x="0px" y="0px"
	 viewBox="0 0 440.95 440.95" style="enable-background:new 0 0 440.95 440.95;" xml:space="preserve">
<g>
	<path style="fill:#4479FA;" d="M127.877,108.379L90.465,70.968c-2.734-2.734-6.483-4.208-10.347-4.069s-7.495,1.882-10.028,4.804
		c-30.33,34.981-47.761,78.605-49.871,125.011c2.305,51.424,23.417,99.44,60.052,136.075
		c38.867,38.866,90.542,60.271,145.507,60.271c50.335,0,97.907-17.956,135.413-50.828c2.635-2.309,5.912-3.455,9.18-3.455
		c3.569,0,7.128,1.365,9.833,4.07l28.079,28.079l11.434-117.505c-0.685-1.532-1.633-2.951-2.848-4.166
		c-2.944-2.944-7.05-4.416-11.194-4.013l-112.161,10.914l9.715,9.715c2.839,2.84,4.315,6.767,4.047,10.773
		c-0.215,3.228-1.562,6.24-3.739,8.57c2.628,2.809,3.996,6.577,3.739,10.43c-0.267,4.007-2.254,7.7-5.443,10.141
		c-49.061,37.555-119.756,33.911-164.613-10.946c-26.826-26.826-38.907-62.893-36.258-98.049
		c-2.336-30.948,6.749-62.6,27.254-88.037C128.102,108.63,127.997,108.499,127.877,108.379z"/>
	<path style="fill:#2C3D8E;" d="M80.62,47.89c3.686,0,7.229,1.462,9.845,4.078l37.411,37.411c5.054,5.054,5.444,13.121,0.917,18.652
		C88.574,157.177,91.383,230,137.221,275.839c24.416,24.416,56.478,36.619,88.549,36.619c26.849,0,53.707-8.56,76.064-25.674
		c3.189-2.441,5.175-6.134,5.443-10.141c0.267-4.007-1.208-7.934-4.047-10.773l-27.03-27.03l129.477-12.598
		c0.451-0.044,0.901-0.066,1.349-0.066c3.674,0,7.221,1.455,9.845,4.078c2.944,2.944,4.416,7.05,4.013,11.194l-12.598,129.477
		l-28.079-28.079c-2.705-2.705-6.264-4.07-9.833-4.07c-3.269,0-6.546,1.145-9.18,3.455c-37.506,32.873-85.078,50.828-135.413,50.828
		c-54.965,0-106.641-21.404-145.507-60.271C41.404,293.922,20,242.247,20,187.281c0-49.96,17.684-97.202,50.09-134.578
		c2.533-2.922,6.163-4.664,10.028-4.804C80.286,47.893,80.453,47.89,80.62,47.89 M80.62,27.89h-0.008
		c-0.403,0-0.806,0.007-1.209,0.022c-9.376,0.338-18.276,4.599-24.424,11.689c-17.72,20.437-31.456,43.547-40.827,68.686
		C4.761,133.48,0,160.058,0,187.281c0,60.308,23.485,117.006,66.129,159.65c42.644,42.644,99.342,66.128,159.649,66.128
		c27.43,0,54.196-4.833,79.555-14.366c23.542-8.849,45.286-21.527,64.713-37.722l24.096,24.096c3.816,3.816,8.93,5.858,14.145,5.858
		c2.262,0,4.542-0.384,6.746-1.174c7.284-2.611,12.408-9.189,13.157-16.89l12.598-129.477c0.986-10.133-2.577-20.074-9.777-27.273
		c-6.407-6.407-14.926-9.936-23.987-9.936c-1.094,0-2.2,0.054-3.287,0.16l-129.475,12.598c-7.701,0.749-14.279,5.874-16.89,13.157
		c-2.611,7.284-0.786,15.42,4.685,20.891l21.957,21.957c-17.105,11.338-37.53,17.518-58.244,17.518
		c-28.145,0-54.57-10.925-74.406-30.761c-38.4-38.401-41.449-99.017-7.091-140.999c11.086-13.547,10.118-33.091-2.253-45.461
		l-37.411-37.411C98.201,31.419,89.682,27.89,80.62,27.89L80.62,27.89z"/>
</g>
<g>
</g>
<g>
</g>
<g>
</g>
<g>
</g>
<g>
</g>
<g>
</g>
<g>
</g>
<g>
</g>
<g>
</g>
<g>
</g>
<g>
</g>
<g>
</g>
<g>
</g>
<g>
</g>
<g>
</g>
</svg>
