<?xml version="1.0" encoding="iso-8859-1"?>
<!-- Generator: Adobe Illustrator 19.0.0, SVG Export Plug-In . SVG Version: 6.00 Build 0)  -->
<svg version="1.1"  id="Capa_1" xmlns="http://www.w3.org/2000/svg" xmlns:xlink="http://www.w3.org/1999/xlink" x="0px" y="0px"
	 viewBox="0 0 58 58" style="enable-background:new 0 0 58 58;" xml:space="preserve">
<g>
	<path style="fill:#EBD388;" d="M50.173,48.787c0.127-0.135,0.255-0.269,0.379-0.407c0.135-0.15,0.265-0.305,0.396-0.458
		c0.949-1.099,1.816-2.268,2.594-3.501c0.007-0.01,0.013-0.021,0.02-0.031c0.211-0.335,0.414-0.676,0.611-1.02
		c0.008-0.013,0.016-0.027,0.023-0.041c1.38-2.417,2.421-5.05,3.062-7.836c0.022-0.096,0.046-0.192,0.067-0.289
		c0.064-0.294,0.123-0.589,0.178-0.886c0.03-0.159,0.059-0.319,0.086-0.479c0.044-0.261,0.085-0.522,0.122-0.785
		c0.03-0.209,0.055-0.419,0.08-0.629c0.027-0.228,0.054-0.455,0.076-0.684c0.026-0.271,0.044-0.544,0.062-0.818
		c0.012-0.179,0.027-0.357,0.036-0.537C57.987,29.927,58,29.465,58,29s-0.013-0.927-0.035-1.387
		c-0.008-0.18-0.024-0.358-0.036-0.537c-0.018-0.273-0.037-0.546-0.062-0.818c-0.022-0.229-0.049-0.456-0.076-0.684
		c-0.025-0.21-0.051-0.42-0.08-0.629c-0.037-0.263-0.078-0.524-0.122-0.785c-0.027-0.16-0.056-0.32-0.086-0.479
		c-0.055-0.297-0.114-0.593-0.178-0.886c-0.021-0.097-0.045-0.193-0.067-0.289c-0.64-2.786-1.681-5.418-3.062-7.836
		c-0.008-0.014-0.016-0.027-0.023-0.041c-0.197-0.344-0.401-0.685-0.611-1.02c-0.007-0.01-0.013-0.021-0.02-0.031
		c-0.777-1.233-1.645-2.402-2.594-3.501c-0.132-0.153-0.262-0.307-0.396-0.458c-0.124-0.138-0.252-0.272-0.379-0.407
		c-0.185-0.198-0.37-0.395-0.56-0.588c-0.104-0.105-0.211-0.209-0.316-0.313c-0.225-0.222-0.454-0.44-0.687-0.655
		c-0.083-0.076-0.166-0.152-0.25-0.227c-0.271-0.244-0.546-0.482-0.826-0.716C47.48,6.67,47.426,6.625,47.371,6.58
		c-0.335-0.276-0.676-0.544-1.024-0.805c-0.003-0.002-0.006-0.005-0.01-0.007c-1.836-1.376-3.846-2.54-5.995-3.455
		c-0.056-0.024-0.112-0.047-0.168-0.07c-0.354-0.148-0.713-0.29-1.074-0.424c-0.093-0.035-0.186-0.069-0.28-0.103
		c-0.324-0.117-0.652-0.227-0.982-0.333c-0.123-0.039-0.246-0.08-0.37-0.117c-0.3-0.092-0.603-0.176-0.908-0.258
		c-0.149-0.04-0.298-0.083-0.448-0.121c-0.282-0.071-0.567-0.134-0.853-0.197c-0.17-0.037-0.338-0.079-0.508-0.113
		c-0.018-0.004-0.037-0.009-0.055-0.012L34.5,0.523l-0.017,0.003C32.706,0.185,30.875,0,29,0C13.01,0,0,13.01,0,29s13.01,29,29,29
		c1.875,0,3.706-0.185,5.483-0.527l0.017,0.003l0.195-0.039c0.019-0.004,0.037-0.009,0.055-0.012
		c0.171-0.035,0.339-0.076,0.508-0.113c0.286-0.063,0.571-0.126,0.853-0.197c0.15-0.038,0.299-0.08,0.448-0.121
		c0.305-0.082,0.608-0.167,0.908-0.258c0.124-0.038,0.246-0.078,0.37-0.117c0.33-0.105,0.658-0.216,0.982-0.333
		c0.093-0.034,0.187-0.068,0.28-0.103c0.363-0.135,0.722-0.277,1.077-0.425c0.055-0.023,0.11-0.045,0.164-0.068
		c2.15-0.915,4.16-2.079,5.997-3.456c0.003-0.002,0.006-0.005,0.01-0.007c0.348-0.261,0.689-0.53,1.024-0.805
		c0.055-0.045,0.108-0.09,0.163-0.136c0.28-0.234,0.555-0.472,0.826-0.716c0.084-0.075,0.167-0.151,0.25-0.227
		c0.233-0.214,0.461-0.433,0.687-0.655c0.106-0.104,0.212-0.207,0.316-0.313C49.803,49.182,49.988,48.985,50.173,48.787z
		 M2.625,34.762C2.849,34.579,3,34.312,3,34c0-0.444-0.294-0.807-0.694-0.938C2.105,31.737,2,30.38,2,29
		c0-0.679,0.034-1.35,0.083-2.017C2.594,26.939,3,26.523,3,26c0-0.449-0.302-0.815-0.709-0.941
		c0.535-3.643,1.798-7.052,3.639-10.073C5.954,14.988,5.975,15,6,15c0.552,0,1-0.448,1-1c0-0.166-0.05-0.315-0.121-0.453
		c0.72-1.028,1.508-2.003,2.361-2.92C9.423,10.85,9.689,11,10,11c0.552,0,1-0.448,1-1c0-0.311-0.15-0.577-0.372-0.76
		c0.916-0.853,1.892-1.641,2.92-2.361C13.685,6.95,13.834,7,14,7c0.552,0,1-0.448,1-1c0-0.025-0.012-0.046-0.014-0.07
		C19.074,3.438,23.872,2,29,2c0.128,0,0.255,0.008,0.382,0.01c-2.329,0.917-4.502,2.124-6.479,3.574C22.744,5.241,22.402,5,22,5
		c-0.552,0-1,0.448-1,1c0,0.32,0.16,0.593,0.394,0.775c-0.943,0.793-1.834,1.643-2.668,2.546C18.544,9.126,18.289,9,18,9
		c-0.552,0-1,0.448-1,1c0,0.341,0.181,0.627,0.441,0.807C13.394,15.829,11,22.19,11,29c0,12.047,7.484,22.699,18.382,26.99
		C29.255,55.992,29.128,56,29,56C16.09,56,5.273,46.89,2.625,34.762z"/>
	<circle cx="18" cy="50" r="1"/>
	<circle cx="22" cy="54" r="1"/>
	<circle cx="14" cy="14" r="1"/>
	<circle cx="10" cy="18" r="1"/>
	<circle cx="10" cy="26" r="1"/>
	<circle cx="10" cy="34" r="1"/>
	<circle cx="10" cy="42" r="1"/>
	<circle cx="14" cy="46" r="1"/>
	<circle cx="6" cy="22" r="1"/>
	<circle cx="6" cy="30" r="1"/>
	<circle cx="6" cy="38" r="1"/>
</g>
<g>
</g>
<g>
</g>
<g>
</g>
<g>
</g>
<g>
</g>
<g>
</g>
<g>
</g>
<g>
</g>
<g>
</g>
<g>
</g>
<g>
</g>
<g>
</g>
<g>
</g>
<g>
</g>
<g>
</g>
</svg>
