<?xml version="1.0" encoding="iso-8859-1"?>
<!-- Generator: Adobe Illustrator 19.0.0, SVG Export Plug-In . SVG Version: 6.00 Build 0)  -->
<svg version="1.1" id="Layer_1" xmlns="http://www.w3.org/2000/svg" xmlns:xlink="http://www.w3.org/1999/xlink" x="0px" y="0px"
	 viewBox="0 0 497.16 497.16" style="enable-background:new 0 0 497.16 497.16;" xml:space="preserve">
<polygon style="fill:#29CC91;" points="477.477,50.349 248.582,446.811 19.686,50.349 "/>
<polygon style="fill:#089CA0;" points="398.708,50.349 248.582,446.811 98.456,50.349 "/>
<g>
	<path style="fill:#2D4459;" d="M248.582,466.503c-7.034,0-13.54-3.757-17.046-9.846L2.641,60.195
		c-3.521-6.089-3.521-13.603,0-19.692c3.505-6.089,10.012-9.846,17.046-9.846H477.47c7.05,0,13.54,3.757,17.061,9.846
		c3.505,6.089,3.505,13.603,0,19.692L265.643,456.657C262.122,462.746,255.632,466.503,248.582,466.503z M53.793,70.042
		l194.788,337.384L443.37,70.042H53.793z"/>
	<path style="fill:#2D4459;" d="M488.647,156.026c0,10.878-8.814,19.692-19.692,19.692h-37.612
		c-10.878,0-19.692-8.814-19.692-19.692s8.814-19.692,19.692-19.692h37.612C479.825,136.334,488.647,145.148,488.647,156.026z"/>
</g>
<g>
	<circle style="fill:#29CC91;" cx="73.123" cy="363.425" r="8.365"/>
	<circle style="fill:#29CC91;" cx="105.135" cy="363.425" r="8.365"/>
	<circle style="fill:#29CC91;" cx="137.123" cy="363.425" r="8.365"/>
</g>
<g>
</g>
<g>
</g>
<g>
</g>
<g>
</g>
<g>
</g>
<g>
</g>
<g>
</g>
<g>
</g>
<g>
</g>
<g>
</g>
<g>
</g>
<g>
</g>
<g>
</g>
<g>
</g>
<g>
</g>
</svg>
